<svg version="1.1" id="Logo" xmlns="http://www.w3.org/2000/svg" x="0px" y="0px"
     viewBox="0 0 264 70" style="enable-background:new 0 0 264 70;" xml:space="preserve">

	<path style="fill:#007DFC;" d="M64.3,24.2c0-4-1.2-7.9-3.4-11.2s-5.4-5.8-9.1-7.3C48,4.4,44,4.1,40.1,5c-3.9,0.9-7.4,3-10.1,5.9H5v52.7h52.7
		V38.9c2.1-1.8,3.7-4.1,4.9-6.6S64.3,27,64.3,24.2z M54.2,24.2c0,1.9-0.6,3.8-1.6,5.4c-1.1,1.6-2.6,2.8-4.3,3.6
		c-1.8,0.7-3.7,0.9-5.6,0.6c-1.9-0.4-3.6-1.3-4.9-2.6c-1.4-1.3-2.3-3.1-2.6-4.9c-0.4-1.9-0.2-3.8,0.5-5.6c0.7-1.8,2-3.3,3.6-4.3
		c1.6-1.1,3.5-1.6,5.4-1.6c2.6,0,5,1,6.8,2.8C53.2,19.2,54.2,21.7,54.2,24.2z M47.6,53.4H15.2V21h9.9c-0.2,1.1-0.3,2.1-0.3,3.2
		c0,5.2,2.1,10.3,5.8,14c3.7,3.7,8.7,5.8,14,5.8c1,0,2-0.1,3.1-0.3V53.4z"/>
    <text transform="matrix(1 0 0 1 68.8952 48.3945)" style="font-family:'TrebuchetMS-Bold'; font-size:39.4096px;">
  LogoIpsum
</text>

</svg>